<svg xmlns="http://www.w3.org/2000/svg" id="Capa_1" height="512" viewBox="0 0 512 512" width="512"><g><path d="m361 435.61h15v15h-15z"></path><path d="m390.999 435.61h15v15h-15z"></path><path d="m435.469 497c9.994-9.677 16.225-23.218 16.225-38.194 0-29.332-23.863-53.195-53.195-53.195h-116.535c2.562-4.416 4.036-9.538 4.036-15s-1.475-10.583-4.036-15h56.535l.002-98.627h-15l-.001 36.249c-40.03-9.531-97.078-34.014-101.332-96.249h74.926l55.409 7.433c11.695 1.569 23.497 9.156 23.497 22.567v143.626h15v-143.626c0-19.157-15.011-34.55-36.503-37.434l-51.187-6.867-9.649-30.515 8.745-6.559h12.5c12.406 0 22.5-10.093 22.5-22.5v-28.501-23.93c0-31.907-22.427-59.484-53.066-66.471-2.707-13.778-14.873-24.207-29.434-24.207-14.563 0-26.73 10.432-29.435 24.214-11.197 2.553-21.566 7.903-30.264 15.686l10.002 11.179c6.171-5.522 13.411-9.473 21.225-11.643 3.966 11.931 15.226 20.564 28.472 20.564 13.248 0 24.51-8.635 28.473-20.57 22.679 6.289 39.027 27.191 39.027 51.249v2.72c-2.347-.833-4.871-1.29-7.5-1.29h-7.5v-15h-105v15h-7.5c-2.629 0-5.152.458-7.499 1.29v-2.719c0-10.624 3.163-20.897 9.147-29.71l-12.41-8.426c-7.679 11.309-11.737 24.496-11.737 38.136v23.93 28.501c0 12.407 10.093 22.5 22.499 22.5h12.5l8.968 6.726-7.951 30.384-50.92 6.831c-21.492 2.883-36.503 18.276-36.503 37.434v158.626h-7.5c-29.331 0-53.194 23.863-53.194 53.194 0 14.977 6.231 28.518 16.225 38.195h-39.031v15h437v-15h-39.031zm-180.563-452c-8.271 0-15-6.729-15-15s6.729-15 15-15 15 6.729 15 15-6.728 15-15 15zm60 62.109c4.136 0 7.5 3.364 7.5 7.5v28.501c0 4.136-3.364 7.5-7.5 7.5h-7.5v-43.501zm-22.5 47.251-25 18.75h-25l-25-18.75v-62.25h75zm-104.999-11.25v-28.501c0-4.136 3.364-7.5 7.499-7.5h7.5v43.501h-7.5c-4.135 0-7.499-3.364-7.499-7.5zm49.999 44.999h35l8.538-6.403 6.413 20.278h-63.236l5.215-19.927zm-101.405 58.875c0-13.412 11.802-20.998 23.497-22.567l47.697-6.398c2.04 30.581 15.184 56.047 39.165 75.787 19.268 15.86 45.845 27.839 77.139 34.822l-.001 31.984h-134.997l-.001-83.627h-15l.001 98.627h82.499c8.271 0 15 6.729 15 15s-6.729 15-15 15h-119.999zm183.919 250.016c10.953-5.3 21.297-12.455 30.277-22.167l-11.014-10.183c-29.911 32.35-78.134 32.35-110.045 32.35h-115.637c-21.061 0-38.194-17.134-38.194-38.195s17.134-38.194 38.194-38.194h41.269c33.708 45.686 92.584 45.695 128.092 45.695v-15c-40.141 0-81.183-2.612-108.472-30.695h224.109c21.061 0 38.195 17.134 38.195 38.195s-17.134 38.194-38.195 38.194z"></path></g></svg>