<svg xmlns="http://www.w3.org/2000/svg" id="Capa_1" height="512" viewBox="0 0 512 512" width="512"><g><g><path d="m33.76 342.5c4.143 0 7.5-3.358 7.5-7.5v-6.43c0-32.787 17.502-63.573 45.679-80.347l34.529-20.571 5.813 8.456v100.702c0 9.705 7.896 17.6 17.6 17.6h20.21c9.705 0 17.601-7.896 17.601-17.6v-63.944c11.609 17.244 29.136 30.186 49.646 35.897v52.293c0 7.478 6.084 13.561 13.562 13.561h20.203c7.478 0 13.562-6.083 13.562-13.561v-52.282c20.51-5.691 38.037-18.586 49.646-35.769v63.804c0 9.705 7.896 17.6 17.601 17.6h20.21c9.704 0 17.6-7.896 17.6-17.6v-100.7l5.813-8.457 34.527 20.569c.962.573 1.913 1.166 2.857 1.776 1.259.814 2.67 1.204 4.066 1.204 2.459 0 4.869-1.208 6.304-3.427 2.25-3.478 1.255-8.121-2.224-10.371-1.1-.711-2.217-1.406-3.324-2.066l-33.691-20.072 21.601-31.425c5.574-8.105 8.521-17.583 8.521-27.41 0-5.19-.828-10.318-2.469-15.262-1.657-4.948-4.056-9.547-7.13-13.672l-74.736-100.207c-5.21-6.969-13.508-11.129-22.197-11.129h-10.724c-.738-9.032-8.311-16.16-17.53-16.16h-76.771c-9.219 0-16.792 7.128-17.53 16.16h-10.725c-8.689 0-16.987 4.16-22.204 11.139l-3.04 4.08c-2.476 3.321-1.789 8.02 1.532 10.495 1.346 1.002 2.917 1.486 4.476 1.486 2.288 0 4.548-1.043 6.02-3.02l3.033-4.07c2.393-3.2 6.199-5.11 10.184-5.11h10.651v49.653h-54.055l9.255-12.409c2.477-3.32 1.793-8.02-1.528-10.496-3.319-2.476-8.02-1.792-10.495 1.528l-50.762 68.062c-6.188 8.305-9.597 18.58-9.597 28.932 0 4.856.731 9.683 2.177 14.352 1.443 4.652 3.579 9.047 6.343 13.056l21.602 31.426-33.689 20.071c-32.694 19.463-53.003 55.188-53.003 93.235v6.43c0 4.142 3.357 7.5 7.5 7.5zm70.692-206.036 6.209-8.326h290.677l6.208 8.324c2.027 2.72 3.618 5.756 4.756 9.001h-312.591c1.117-3.213 2.703-6.264 4.741-8.999zm207.536-25.927v-14.724h65.242l12.921 17.325h-78.377c.127-.851.214-1.715.214-2.601zm96.301 64.804-1.682 2.447h-62.297v-17.325h69.595c-.645 5.322-2.539 10.404-5.616 14.878zm-38.569 99.423h-25.41v-17.325h25.41zm-25.41 15h25.41v17.325h-25.41zm26.729-60.233c-.859 1.25-1.319 2.731-1.319 4.249v8.659h-25.41v-17.325h29.766zm13.348-19.417h-40.077v-17.325h51.986zm-216.697 15v17.325h-25.41v-8.659c0-1.517-.46-2.999-1.319-4.249l-3.037-4.417zm-25.41 32.325h25.41v17.325h-25.41zm0 32.325h25.41v17.325h-25.41zm25.41-129.301v17.325h-62.297l-1.688-2.456c-1.908-2.768-3.379-5.794-4.37-8.99-.597-1.927-.995-3.895-1.237-5.879zm0 32.326v17.325h-40.077l-11.909-17.325zm-2.6 146.621h-20.21c-1.434 0-2.6-1.167-2.6-2.6v-14.721h25.41v14.721c0 1.434-1.167 2.6-2.6 2.6zm99.573 20.208h-17.326v-48.055c2.851.279 5.74.425 8.663.425s5.812-.146 8.663-.424zm-8.663-62.63c-40.373 0-73.226-32.805-73.31-73.159v-63.369h146.62v63.683c-.084 40.18-32.937 72.845-73.31 72.845zm111.12 42.422h-20.21c-1.434 0-2.601-1.167-2.601-2.6v-14.721h25.41v14.721c.001 1.434-1.165 2.6-2.599 2.6zm-34.302-303.146 33.225 44.549h-54.055v-49.653h10.651c3.985 0 7.792 1.911 10.179 5.104zm-85.481-21.264h17.326v49.65h-17.326zm-32.325 2.602c0-1.435 1.168-2.602 2.603-2.602h14.723v51.089c0 7.478 6.084 13.561 13.562 13.561h20.203c7.478 0 13.562-6.083 13.562-13.561v-51.089h14.723c1.435 0 2.603 1.167 2.603 2.602v92.935c0 1.435-1.168 2.602-2.603 2.602h-76.771c-1.435 0-2.603-1.167-2.603-2.602v-92.935zm-15 78.211v14.724c0 .886.087 1.75.214 2.602h-78.377l12.921-17.325h65.242z"></path><path d="m485.74 401.174v-72.604c0-23.605-7.878-46.95-22.184-65.734-2.51-3.296-7.216-3.933-10.511-1.423s-3.933 7.215-1.423 10.511c12.328 16.188 19.117 36.305 19.117 56.646v67.885c-2.174-.303-4.39-.471-6.646-.471h-66.242v-22.805c0-4.142-3.357-7.5-7.5-7.5s-7.5 3.358-7.5 7.5v22.805h-19.774c-26.416 0-47.906 21.491-47.906 47.906v50.508c0 .886.087 1.75.214 2.602h-118.77c.127-.851.214-1.715.214-2.602v-50.508c0-26.416-21.49-47.906-47.906-47.906h-19.774v-22.805c0-4.142-3.357-7.5-7.5-7.5s-7.5 3.358-7.5 7.5v22.805h-66.243c-2.256 0-4.473.168-6.646.471v-26.455c0-4.142-3.357-7.5-7.5-7.5s-7.5 3.358-7.5 7.5v31.174c-15.566 7.921-26.26 24.088-26.26 42.716v50.508c0 9.706 7.896 17.602 17.602 17.602h476.797c9.705 0 17.602-7.896 17.602-17.602v-50.508c-.001-18.628-10.695-34.795-26.261-42.716zm-470.74 93.224v-50.508c0-18.145 14.762-32.906 32.906-32.906h101.017c18.145 0 32.906 14.762 32.906 32.906v50.508c0 1.435-1.167 2.602-2.602 2.602h-26.846v-22.805c0-4.142-3.357-7.5-7.5-7.5s-7.5 3.358-7.5 7.5v22.805h-31.467v-22.805c0-4.142-3.357-7.5-7.5-7.5s-7.5 3.358-7.5 7.5v22.805h-31.467v-22.805c0-4.142-3.357-7.5-7.5-7.5s-7.5 3.358-7.5 7.5v22.805h-26.845c-1.435 0-2.602-1.167-2.602-2.602zm482 0c0 1.435-1.167 2.602-2.602 2.602h-26.846v-22.805c0-4.142-3.357-7.5-7.5-7.5s-7.5 3.358-7.5 7.5v22.805h-31.468v-22.805c0-4.142-3.357-7.5-7.5-7.5s-7.5 3.358-7.5 7.5v22.805h-31.467v-22.805c0-4.142-3.357-7.5-7.5-7.5s-7.5 3.358-7.5 7.5v22.805h-26.846c-1.435 0-2.602-1.167-2.602-2.602v-50.508c0-18.145 14.762-32.906 32.906-32.906h101.017c18.145 0 32.906 14.762 32.906 32.906v50.508z"></path></g></g></svg>